<svg viewBox="0 0 100 100" xmlns="http://www.w3.org/2000/svg">
    <!-- Wall/Barrier (Engel) -->
    <rect x="42" y="20" width="6" height="15" fill="#ef4444" opacity="0.8" rx="1"/>
    <rect x="42" y="38" width="6" height="15" fill="#ef4444" opacity="0.8" rx="1"/>
    <rect x="42" y="56" width="6" height="15" fill="#ef4444" opacity="0.8" rx="1"/>
    <path d="M45 15 L45 80" stroke="#ef4444" stroke-width="2" stroke-dasharray="3,4" opacity="0.3"/>
    
    <!-- Data Flow Arrow - Bypassing -->
    <defs>
        <linearGradient id="bypassGradient" x1="0%" y1="0%" x2="100%" y2="0%">
            <stop offset="0%" style="stop-color:#fbbf24;stop-opacity:1" />
            <stop offset="100%" style="stop-color:#f59e0b;stop-opacity:1" />
        </linearGradient>
        
        <!-- Glow Effect -->
        <filter id="glow">
            <feGaussianBlur stdDeviation="2" result="coloredBlur"/>
            <feMerge>
                <feMergeNode in="coloredBlur"/>
                <feMergeNode in="SourceGraphic"/>
            </feMerge>
        </filter>
    </defs>
    
    <!-- Main Bypass Path -->
    <path d="M15 50 L35 50 Q40 50 42 45 L42 35 Q42 30 47 30 L52 30 Q57 30 57 35 L57 65 Q57 70 62 70 L85 70" 
          fill="none" 
          stroke="url(#bypassGradient)" 
          stroke-width="4" 
          stroke-linecap="round"
          stroke-linejoin="round"
          filter="url(#glow)"/>
    
    <!-- Arrow Head -->
    <polygon points="85,70 78,66 78,74" fill="url(#bypassGradient)"/>
    
    <!-- Flow Particles -->
    <circle cx="25" cy="50" r="2" fill="#fbbf24" opacity="0.8">
        <animate attributeName="opacity" values="0.8;0.2;0.8" dur="1.5s" repeatCount="indefinite"/>
    </circle>
    <circle cx="52" cy="30" r="2" fill="#f59e0b" opacity="0.6">
        <animate attributeName="opacity" values="0.6;0.2;0.6" dur="1.5s" begin="0.3s" repeatCount="indefinite"/>
    </circle>
    <circle cx="57" cy="50" r="2" fill="#fbbf24" opacity="0.7">
        <animate attributeName="opacity" values="0.7;0.2;0.7" dur="1.5s" begin="0.6s" repeatCount="indefinite"/>
    </circle>
    <circle cx="75" cy="70" r="2" fill="#f59e0b" opacity="0.8">
        <animate attributeName="opacity" values="0.8;0.2;0.8" dur="1.5s" begin="0.9s" repeatCount="indefinite"/>
    </circle>
</svg>
